<svg fill="none" height="15" viewBox="0 0 15 15" width="15" xmlns="http://www.w3.org/2000/svg"><path clip-rule="evenodd" d="m4.02513 4.02513c-1.36683 1.36683-1.36683 3.58291 0 4.94974 1.36684 1.36683 3.58292 1.36683 4.94975 0 1.36682-1.36683 1.36682-3.58291 0-4.94974-1.36683-1.36684-3.58291-1.36684-4.94975 0zm-.7071 5.65685c-1.75736-1.75736-1.75736-4.6066 0-6.36396s4.6066-1.75736 6.36396 0c1.63781 1.63785 1.74921 4.22414.33411 5.99099l2.8375 2.83749c.1952.1952.1952.5118 0 .7071-.1953.1952-.5119.1952-.7071 0l-2.83748-2.8375c-1.76685 1.4151-4.35314 1.3037-5.99099-.33412z" fill="#151515" fill-rule="evenodd"/></svg>